<svg width="78" height="48" viewBox="0 0 78 48" fill="none" xmlns="http://www.w3.org/2000/svg">
<path fill-rule="evenodd" clip-rule="evenodd" d="M65.7969 47.6118V37.3204H61.5497V47.6118H65.7969ZM43.3116 43.3386V37.4761H39.1949V41.9575C39.1949 43.2601 39.1429 43.6253 39.0648 43.9641C38.7781 44.9023 37.7879 45.3182 36.772 45.3182C35.3654 45.3182 34.7139 44.7712 34.4533 43.9116C34.3752 43.6257 34.3492 43.313 34.3231 43.0003C34.2971 42.6615 34.3231 42.2963 34.3231 41.9064V37.4765H30.1544V43.3651C30.1544 44.6945 30.5977 45.6843 31.3268 46.3614C32.5773 47.5863 34.6879 47.951 36.6419 47.951C39.0128 47.951 40.8367 47.6123 42.1392 46.3358C42.8171 45.6839 43.3116 44.8242 43.3116 43.3386ZM23.0935 42.609C22.8871 42.5732 22.6779 42.5559 22.4685 42.5574H17.7788C17.5442 42.5574 17.2835 42.5835 17.1534 42.609C17.2314 42.5305 17.388 42.3748 17.5442 42.1662L19.6543 38.6745C19.941 38.2061 20.0712 37.8934 20.1232 37.7633C20.1753 37.8934 20.3054 38.2061 20.5921 38.7014L22.7547 42.2191C22.8593 42.3748 23.0154 42.5305 23.0935 42.609ZM30.962 47.6118L21.5823 33.5429H16.3197L17.7003 35.1842C17.7263 35.2102 17.7788 35.2358 17.8304 35.2627C17.7784 35.2888 17.7263 35.3143 17.7003 35.3404L9.51948 47.6118H14.2612L15.5381 45.5012C15.5902 45.3971 15.6162 45.2926 15.6162 45.241C15.6682 45.241 15.7988 45.2926 15.9289 45.2926H24.3965C24.5266 45.2926 24.6307 45.2666 24.6827 45.241C24.678 45.3143 24.6961 45.3872 24.7348 45.4496L26.0638 47.6118H30.962ZM60.4037 42.3232C60.4037 41.1764 59.9344 39.8474 58.4757 37.9975L54.9581 33.5425H50.0598L52.8475 36.6689C53.3168 37.1903 53.9158 37.6587 53.9158 37.6587C53.2387 37.2675 52.379 37.1118 51.7015 37.1118C50.0863 37.1118 48.4441 37.4505 46.9859 38.2586C45.4222 39.1174 44.3799 40.5509 44.3799 42.4533C44.3799 43.912 45.0314 45.0328 45.8651 45.8925C47.7414 47.768 51.1537 47.9506 52.4046 47.9506C54.2541 47.9506 57.1463 47.5338 58.7885 46.0486C59.7527 45.1625 60.4037 43.9385 60.4037 42.3232ZM56.3391 42.4533C56.3391 43.5216 55.6351 44.3288 54.7494 44.7717C54.0199 45.1629 53.1598 45.267 52.4046 45.267C51.6495 45.267 50.7633 45.1104 50.0338 44.7457C49.1481 44.3028 48.4701 43.4431 48.4701 42.5049C48.4701 41.385 49.3298 40.4984 50.3465 40.0556C50.972 39.7698 51.7275 39.6652 52.3261 39.6652C52.9 39.6652 53.7336 39.7428 54.3851 40.004C55.5579 40.4984 56.3391 41.4366 56.3391 42.4533ZM64.4476 1.94106e-05C61.397 -0.00490551 58.4348 1.02427 56.0445 2.91957C53.6542 1.02414 50.6919 -0.00504491 47.6413 1.94106e-05C44.5909 -0.00470121 41.6289 1.02445 39.2386 2.91957C36.8485 1.02405 33.8864 -0.00515427 30.8359 1.94106e-05C27.7855 -0.00470121 24.8235 1.02445 22.4332 2.91957C20.0429 1.02439 17.0809 -0.00477089 14.0305 1.94106e-05C6.54479 1.94106e-05 0.478516 6.06585 0.478516 13.552C0.478516 21.0372 6.54435 27.1039 14.0305 27.1039C17.0809 27.1086 20.0429 26.0795 22.4332 24.1844C24.8235 26.0796 27.7855 27.1087 30.8359 27.1039C33.8864 27.109 36.8485 26.0798 39.2386 24.1844C41.6289 26.0795 44.5909 27.1087 47.6413 27.1039C50.6919 27.109 53.6541 26.0798 56.0445 24.1844C58.4348 26.0798 61.397 27.109 64.4476 27.1039C71.9333 27.1039 77.9991 21.0377 77.9991 13.552C77.9991 6.06629 71.9333 1.94106e-05 64.4476 1.94106e-05ZM20.2158 21.9706C18.489 23.2303 16.3316 23.9991 14.0305 23.9991C8.25576 23.9991 3.58289 19.3267 3.58289 13.552C3.58289 7.77727 8.25576 3.10439 14.0305 3.10439C16.3316 3.10439 18.4877 3.87365 20.2158 5.13383C18.3118 7.52595 17.278 10.4946 17.2844 13.552C17.2858 16.6082 18.3187 19.5745 20.2158 21.9706ZM22.4336 19.7594C21.1018 17.9642 20.3848 15.7872 20.3892 13.552C20.3836 11.3165 21.1007 9.13916 22.4336 7.34456C23.7663 9.13929 24.4834 11.3166 24.4781 13.552C24.4823 15.7872 23.7653 17.9641 22.4336 19.7594ZM37.0217 21.9706C35.2276 23.2914 33.0568 24.0014 30.8288 23.996C28.6055 24.0006 26.4396 23.2905 24.6505 21.9706C26.5478 19.5747 27.5808 16.6085 27.582 13.5524C27.5884 10.495 26.5546 7.52639 24.6505 5.13427C26.4395 3.81396 28.6054 3.10372 30.8288 3.10836C33.1467 3.10836 35.2882 3.85821 37.0217 5.13427C35.1176 7.52639 34.0839 10.495 34.0902 13.5524C34.0915 16.6085 35.1244 19.5747 37.0217 21.9706ZM39.2386 19.7594C37.9068 17.9642 37.1898 15.7872 37.1942 13.552C37.1888 11.3166 37.9059 9.13926 39.2386 7.34456C40.5716 9.13915 41.2889 11.3165 41.2835 13.552C41.2877 15.7873 40.5706 17.9643 39.2386 19.7594ZM53.8271 21.9706C52.0936 23.2471 49.9522 23.996 47.6347 23.996C45.3172 23.996 43.1894 23.2458 41.4559 21.9706C43.3535 19.5748 44.3864 16.6086 44.3874 13.5524C44.3938 10.495 43.36 7.52639 41.4559 5.13427C43.1894 3.85865 45.3172 3.10836 47.6347 3.10836C49.9522 3.10836 52.0936 3.85821 53.8271 5.13427C51.9233 7.52651 50.8895 10.4951 50.8957 13.5524C50.8972 16.6085 51.9301 19.5746 53.8271 21.9706ZM56.0449 19.7594C54.7131 17.9642 53.9961 15.7872 54.0005 13.552C53.9947 11.3165 54.7118 9.13907 56.0449 7.34456C57.3776 9.13929 58.0947 11.3166 58.0893 13.552C58.0933 15.7872 57.3764 17.9641 56.0449 19.7594ZM64.4476 23.9991C62.1456 23.9991 59.9887 23.2303 58.2622 21.9706C60.1594 19.5746 61.1923 16.6085 61.1937 13.5524C61.1998 10.4951 60.1661 7.52651 58.2622 5.13427C59.9904 3.87453 62.146 3.10483 64.4476 3.10483C70.2214 3.10483 74.8952 7.77771 74.8952 13.5524C74.8952 19.3263 70.2214 23.9991 64.4476 23.9991Z" fill="#A4A6AE"/>
</svg>
