<svg width="24" height="24" viewBox="0 0 24 24" fill="none" xmlns="http://www.w3.org/2000/svg">
<g clip-path="url(#clip0)">
<circle cx="12" cy="12" r="12" fill="#2D2E34"/>
<path d="M8 7.2002H11.8176C12.5733 7.2002 13.1357 7.23294 13.5049 7.29842C13.8784 7.35954 14.2106 7.49051 14.5016 7.69133C14.797 7.89215 15.0423 8.16063 15.2378 8.49678C15.4332 8.82857 15.5309 9.20183 15.5309 9.61657C15.5309 10.0662 15.4093 10.4788 15.1661 10.8542C14.9273 11.2297 14.6015 11.5112 14.1889 11.699C14.7709 11.8692 15.2182 12.1595 15.5309 12.5699C15.8436 12.9803 16 13.4627 16 14.0171C16 14.4537 15.8979 14.8793 15.6938 15.2941C15.494 15.7044 15.2182 16.034 14.8664 16.2829C14.519 16.5273 14.089 16.678 13.5765 16.7347C13.2552 16.7696 12.4799 16.7915 11.2508 16.8002H8V7.2002ZM9.92834 8.79801V11.0179H11.1922C11.9435 11.0179 12.4104 11.007 12.5928 10.9852C12.9229 10.9459 13.1813 10.8324 13.3681 10.6447C13.5592 10.4526 13.6547 10.2016 13.6547 9.8916C13.6547 9.59474 13.5722 9.35463 13.4072 9.17127C13.2465 8.98355 13.0054 8.87004 12.684 8.83075C12.4929 8.80893 11.9435 8.79801 11.0358 8.79801H9.92834ZM9.92834 12.6157V15.1827H11.7134C12.4083 15.1827 12.8491 15.1631 13.0358 15.1238C13.3225 15.0714 13.5548 14.9448 13.7329 14.744C13.9153 14.5388 14.0065 14.266 14.0065 13.9254C14.0065 13.6373 13.937 13.3928 13.798 13.192C13.6591 12.9912 13.4571 12.8449 13.1922 12.7533C12.9316 12.6616 12.3626 12.6157 11.4853 12.6157H9.92834Z" fill="white"/>
</g>
<defs>
<clipPath id="clip0">
<rect width="24" height="24" fill="white" transform="matrix(1 0 0 -1 0 24)"/>
</clipPath>
</defs>
</svg>
