<svg width="65" height="64" viewBox="0 0 65 64" fill="none" xmlns="http://www.w3.org/2000/svg">
<g clip-path="url(#clip0)">
<path fill-rule="evenodd" clip-rule="evenodd" d="M32.4786 0C50.1036 0 64.4785 14.3749 64.4785 31.9999C64.4785 49.6251 50.1036 63.9999 32.4786 63.9999C14.8536 63.9999 0.478516 49.6251 0.478516 31.9999C0.478516 14.3749 14.8536 0 32.4786 0Z" fill="#92949D"/>
<path d="M13.8879 22.4028L6.33691 15.9082L9.16443 12.6207C9.73987 11.9518 10.2785 11.4819 10.777 11.2082C11.2788 10.934 11.7864 10.8203 12.3011 10.8656C12.8138 10.9094 13.2462 11.0791 13.5943 11.3784C13.916 11.6551 14.1324 12.0187 14.2417 12.4676C14.3531 12.9144 14.3183 13.4205 14.1417 13.9816C14.7312 13.5663 15.309 13.3571 15.8761 13.3483C16.4452 13.341 16.9494 13.5264 17.389 13.9044C17.7364 14.2004 17.9993 14.5831 18.1509 15.0136C18.3059 15.4484 18.3554 15.8638 18.3015 16.2609C18.2476 16.6579 18.0952 17.084 17.8498 17.5399C17.6043 17.9959 17.2415 18.5034 16.7608 19.0622L13.8879 22.4028ZM10.5084 17.4773L12.1377 15.5829C12.578 15.0708 12.8656 14.6761 13.0006 14.4019C13.1773 14.0433 13.2439 13.7135 13.1961 13.4134C13.1482 13.1135 12.9934 12.849 12.7296 12.622C12.48 12.4073 12.1989 12.2861 11.8896 12.2615C11.5771 12.2375 11.275 12.3253 10.9838 12.5219C10.6908 12.7205 10.2732 13.1346 9.73098 13.7649L8.22615 15.5146L10.5084 17.4773ZM13.9946 20.4757L15.8696 18.2959C16.1922 17.9206 16.4063 17.6469 16.5132 17.4761C16.7007 17.1728 16.8233 16.8913 16.881 16.629C16.9405 16.3678 16.9262 16.1 16.8434 15.8265C16.757 15.5535 16.5969 15.313 16.356 15.1058C16.0749 14.8638 15.7585 14.7371 15.4054 14.7246C15.0542 14.7134 14.7082 14.8203 14.3677 15.0457C14.0309 15.2702 13.6203 15.6621 13.1414 16.2189L11.3998 18.2439L13.9946 20.4757ZM26.4426 11.2461V2.70483H28.6944L31.3673 8.75228C31.6145 9.31519 31.7961 9.73672 31.9066 10.0172C32.0355 9.70687 32.2354 9.24938 32.5088 8.64701L35.2132 2.70483H37.2256V11.2461H35.7841V4.09683L32.501 11.2461H31.1515L27.8841 3.97539V11.2461H26.4426ZM46.8689 16.2335L52.0951 9.14716L52.8083 10.0273L49.2689 14.5311C48.9046 14.9992 48.5266 15.4565 48.1354 15.9024C48.9774 15.4951 49.4627 15.262 49.5967 15.2033L55.0665 12.8141L55.9058 13.8498L53.3067 17.4939C52.6642 18.3995 52.0185 19.2005 51.3723 19.8968C51.8562 19.6398 52.4252 19.3588 53.0739 19.053L58.1517 16.6213L58.8515 17.4847L50.7898 21.0718L50.1194 20.2444L54.0561 14.7908C54.3857 14.3338 54.5895 14.0561 54.668 13.9575C54.3089 14.1356 53.9988 14.2819 53.7367 14.3968L47.5784 17.1089L46.8689 16.2335Z" fill="#F1F1F1"/>
<path fill-rule="evenodd" clip-rule="evenodd" d="M51.3819 32.3171C51.3819 42.5541 43.0329 50.9031 32.7959 50.9031V32.3171H51.3819Z" fill="#A4A6AE"/>
<path fill-rule="evenodd" clip-rule="evenodd" d="M51.3819 31.6832C51.3819 21.4463 43.0329 13.0972 32.7959 13.0972V31.6832H51.3819Z" fill="#F1F1F1"/>
<path fill-rule="evenodd" clip-rule="evenodd" d="M13.5762 31.6832C13.5762 21.4464 21.9252 13.0972 32.1622 13.0972V31.6832H13.5762Z" fill="#A4A6AE"/>
<path fill-rule="evenodd" clip-rule="evenodd" d="M13.5762 32.3171C13.5762 42.5541 21.9252 50.9031 32.1622 50.9031V32.3171H13.5762Z" fill="#F1F1F1"/>
</g>
<defs>
<clipPath id="clip0">
<rect width="64" height="64" fill="white" transform="translate(0.478516)"/>
</clipPath>
</defs>
</svg>
