<svg width="48" height="48" viewBox="0 0 48 48" fill="none" xmlns="http://www.w3.org/2000/svg">
<path d="M36.9369 39.516H25M42.0312 39.516H44C44.5523 39.516 45 39.0683 45 38.516V33.0892C45 32.8371 44.9048 32.5943 44.7333 32.4094L37.2337 24.3201C37.0444 24.116 36.7787 24 36.5003 24H16C15.4477 24 15 24.4477 15 25V38.516C15 39.0683 15.4477 39.516 16 39.516H20" stroke="#2A9FF4"/>
<path d="M40.75 28H36C35.4477 28 35 28.4477 35 29V32C35 32.5523 35.4477 33 36 33H45" stroke="#2A9FF4"/>
<circle cx="39.375" cy="39.5" r="3" stroke="#2A9FF4"/>
<circle cx="22.5" cy="39.5" r="3" stroke="#2A9FF4"/>
<path d="M31 24L31 39" stroke="#2A9FF4"/>
<path d="M24.9201 6V10.4214" stroke="#2A9FF4"/>
<path d="M20.334 12.6314H23.3901" stroke="#2A9FF4"/>
<path d="M2.38477 13.3689H3.44084C4.54541 13.3689 5.44084 12.4734 5.44084 11.3689V10.4213" stroke="#2A9FF4"/>
<path d="M7.11811 17.0535H4C2.89543 17.0535 2 16.158 2 15.0535V13.4648C2 12.9318 2.21095 12.42 2.60306 12.0591C3.31457 11.404 4.45948 10.4214 4.92463 10.4214C6.55237 10.4214 8.78406 10.4214 9.82697 10.4214C10.2074 10.4214 10.5788 10.3129 10.8997 10.1086L16.8629 6.31281C17.1838 6.10851 17.5564 6 17.9369 6H26.0514C26.3428 6 26.6307 6.06368 26.8949 6.18659L34.8424 9.88344C35.5478 10.2115 35.9989 10.9189 35.9989 11.6968V15.0535C35.9989 16.158 35.1034 17.0535 33.9989 17.0535H32.7576" stroke="#2A9FF4"/>
<path d="M32.9434 10.4213V10.632C32.9434 11.7365 33.8388 12.632 34.9434 12.632H35.9994" stroke="#2A9FF4"/>
<ellipse cx="10.4018" cy="17.0528" rx="3.05608" ry="2.94759" stroke="#2A9FF4"/>
<ellipse cx="29.5072" cy="17.0528" rx="3.05608" ry="2.94759" stroke="#2A9FF4"/>
<path d="M13.4609 17.0555H26.4493" stroke="#2A9FF4"/>
<path d="M5.82031 10.4213H35.6171" stroke="#2A9FF4"/>
</svg>
