<svg width="48" height="48" viewBox="0 0 48 48" fill="none" xmlns="http://www.w3.org/2000/svg">
<path d="M38 44C41.2995 44 43.0673 44 44.0005 44C44.5528 44 45 43.5523 45 43V5C45 4.44772 44.5523 4 44 4H4C3.44772 4 3 4.44772 3 5V26" stroke="#2A9FF4"/>
<path d="M9 11H39" stroke="#2A9FF4"/>
<path d="M9 16H39" stroke="#2A9FF4"/>
<path d="M13.4258 30V34.4211" stroke="#2A9FF4"/>
<path d="M17.7422 36.6318H14.8658" stroke="#2A9FF4"/>
<path d="M34.6406 37.3683H33.7642C32.6597 37.3683 31.7642 36.4728 31.7642 35.3683V34.4209" stroke="#2A9FF4"/>
<path d="M30.1828 41.0526H33C34.1046 41.0526 35 40.1572 35 39.0526V37.429C35 36.917 34.8054 36.4237 34.4395 36.0656C33.7704 35.4106 32.6867 34.4211 32.2473 34.4211C30.7481 34.4211 28.7044 34.4211 27.6977 34.4211C27.2984 34.4211 26.9092 34.3015 26.5784 34.0778L21.056 30.3433C20.7252 30.1196 20.335 30 19.9356 30H12.4134C12.1061 30 11.8029 30.0708 11.5274 30.207L4.11393 33.8706C3.43177 34.2077 3 34.9027 3 35.6636V39.0526C3 40.1572 3.89543 41.0526 5 41.0526H6.05072" stroke="#2A9FF4"/>
<path d="M5.875 34.4209V34.6314C5.875 35.736 4.97957 36.6314 3.875 36.6314H2.9986" stroke="#2A9FF4"/>
<ellipse rx="2.8764" ry="2.94737" transform="matrix(-1 0 0 1 27.0884 41.0528)" stroke="#2A9FF4"/>
<ellipse rx="2.8764" ry="2.94737" transform="matrix(-1 0 0 1 9.11188 41.0528)" stroke="#2A9FF4"/>
<path d="M24.2148 41.0527H11.9901" stroke="#2A9FF4"/>
<path d="M31.4023 34.4209H3.3574" stroke="#2A9FF4"/>
<path d="M23 24.3532C23.5437 23.7795 25.1993 22.3675 26.0519 23.3234C26.4692 23.7913 26.2 25.2391 26.2 25.848C26.2 26.4233 27.7754 24.8158 28.475 24.3532C29.5825 23.621 32.1547 22.2838 33.1185 23.9047C33.6226 24.7524 33.6204 26.6747 33.6182 26.9126C33.618 26.9288 33.6174 26.9447 33.6165 26.961C33.603 27.2024 33.5156 29.1767 34.2593 28.9872C35.3322 28.7138 36.475 27.9384 39 28.8377" stroke="#2A9FF4"/>
</svg>
