<svg width="44" height="32" viewBox="0 0 44 32" fill="none" xmlns="http://www.w3.org/2000/svg">
<path d="M33.8615 25.9928H38.5C39.0523 25.9928 39.5 25.5451 39.5 24.9928V22.7189C39.5 22.1666 39.0523 21.7189 38.5 21.7189H37.75C37.1977 21.7189 36.75 21.2712 36.75 20.7189V16.25C36.75 15.6977 36.3023 15.25 35.75 15.25H25.1C24.5477 15.25 24.1 14.8023 24.1 14.25V2C24.1 1.44772 23.6523 1 23.1 1H11.8976C11.4372 1 11.0363 1.31435 10.9265 1.76147L7.80054 14.4885C7.69072 14.9357 7.28981 15.25 6.82941 15.25H4.1C3.54771 15.25 3.1 15.6977 3.1 16.25V20.7189C3.1 21.2712 2.65228 21.7189 2.1 21.7189H2C1.44772 21.7189 1 22.1666 1 22.7189V24.9928C1 25.5451 1.44772 25.9928 2 25.9928H5.9" stroke="#2A9FF4"/>
<path d="M10.0234 31.5C12.5828 31.5 14.6484 29.4042 14.6484 26.8303C14.6484 24.2564 12.5828 22.1606 10.0234 22.1606C7.46406 22.1606 5.39844 24.2564 5.39844 26.8303C5.39844 29.4042 7.46406 31.5 10.0234 31.5Z" stroke="#2A9FF4"/>
<path d="M27.5141 30.25C27.4234 30.1858 27.3352 30.1181 27.25 30.0469C27.0925 29.9155 26.9449 29.7724 26.8083 29.6191C26.1504 28.8803 25.75 27.9026 25.75 26.8303C25.75 24.5275 27.5968 22.6606 29.875 22.6606C30.5163 22.6606 31.1234 22.8086 31.6647 23.0725C31.7424 23.1103 31.8186 23.1506 31.8935 23.1931M30.0729 30.9953C31.6123 30.9218 32.3546 30.9415 33.0001 29.6191" stroke="#2A9FF4"/>
<path d="M14.3008 26.9927H25.5008" stroke="#2A9FF4"/>
<path d="M24.1016 15.168L37.6134 1.36826C37.798 1.17974 38.0496 1.07181 38.3134 1.06798L41.9871 1.01471C42.545 1.00662 43.0016 1.45665 43.0016 2.01461V14.25C43.0016 14.8023 42.5538 15.25 42.0016 15.25H40.9016C40.3493 15.25 39.9016 15.6977 39.9016 16.25V18C39.9016 18.5523 40.3493 19 40.9016 19H43.0016" stroke="#2A9FF4"/>
<path d="M6.60156 15.25C6.86594 15.25 12.9946 15.25 16.8032 15.25C17.3555 15.25 17.8016 14.8023 17.8016 14.25V5C17.8016 4.44772 17.3538 4 16.8016 4H10.0651" stroke="#2A9FF4"/>
</svg>
