<svg width="32" height="32" viewBox="0 0 32 32" fill="none" xmlns="http://www.w3.org/2000/svg">
<path d="M9.73486 18.6682C10.7647 21.0105 13.3176 22.6667 15.9995 22.6667C18.6701 22.6667 21.2181 21.0062 22.2568 18.6741" stroke="#2B90D9" stroke-linecap="round"/>
<path fill-rule="evenodd" clip-rule="evenodd" d="M16.0001 29.3333C23.3639 29.3333 29.3334 23.3638 29.3334 16C29.3334 8.63621 23.3639 2.66667 16.0001 2.66667C8.63628 2.66667 2.66675 8.63621 2.66675 16C2.66675 23.3638 8.63628 29.3333 16.0001 29.3333Z" stroke="#2B90D9"/>
<path fill-rule="evenodd" clip-rule="evenodd" d="M12.0001 13.3333C12.7365 13.3333 13.3334 12.7364 13.3334 12C13.3334 11.2636 12.7365 10.6667 12.0001 10.6667C11.2637 10.6667 10.6667 11.2636 10.6667 12C10.6667 12.7364 11.2637 13.3333 12.0001 13.3333Z" fill="#2B90D9"/>
<path fill-rule="evenodd" clip-rule="evenodd" d="M20.0001 13.3333C20.7365 13.3333 21.3334 12.7364 21.3334 12C21.3334 11.2636 20.7365 10.6667 20.0001 10.6667C19.2637 10.6667 18.6667 11.2636 18.6667 12C18.6667 12.7364 19.2637 13.3333 20.0001 13.3333Z" fill="#2B90D9"/>
</svg>
