<svg xmlns="http://www.w3.org/2000/svg" xmlns:xlink="http://www.w3.org/1999/xlink" width="400" height="400" fill="none"><circle cx="200" cy="200" r="200" fill="#f2f5fa"/><rect x="158.5" y="226.5" width="83" height="67" rx="1.5" fill="#fff" stroke="#2d2e34"/><path d="M200.373 249.224c.828 0 1.572.162 2.232.486.66.312 1.176.762 1.548 1.35s.558 1.266.558 2.034c0 .816-.204 1.536-.612 2.16-.408.612-.96 1.086-1.656 1.422s-1.476.504-2.34.504c-1.728 0-3.072-.54-4.032-1.62-.948-1.08-1.422-2.628-1.422-4.644 0-1.416.258-2.622.774-3.618.516-1.008 1.236-1.77 2.16-2.286.936-.528 2.016-.792 3.24-.792a7.33 7.33 0 0 1 1.818.216c.576.132 1.074.33 1.494.594l-.864 1.764c-.624-.408-1.422-.612-2.394-.612-1.212 0-2.16.372-2.844 1.116s-1.026 1.818-1.026 3.222v.018c.372-.432.846-.756 1.422-.972.576-.228 1.224-.342 1.944-.342zm-.396 6.12c.732 0 1.326-.192 1.782-.576.456-.396.684-.918.684-1.566 0-.66-.228-1.182-.684-1.566s-1.068-.576-1.836-.576c-.756 0-1.374.204-1.854.612-.468.408-.702.924-.702 1.548 0 .612.228 1.122.684 1.53.468.396 1.1.594 1.926.594zM184.93 268.64c.792 0 1.412.228 1.86.684.456.456.684 1.128.684 2.016V275h-.852v-3.576c0-.656-.16-1.156-.48-1.5-.312-.344-.756-.516-1.332-.516-.656 0-1.172.204-1.548.612-.376.4-.564.956-.564 1.668V275h-.852v-3.576c0-.656-.16-1.156-.48-1.5-.312-.344-.76-.516-1.344-.516-.648 0-1.164.204-1.548.612-.376.4-.564.956-.564 1.668V275h-.852v-6.312h.816v1.152c.224-.384.536-.68.936-.888s.86-.312 1.38-.312c.528 0 .984.112 1.368.336.392.224.684.556.876.996a2.43 2.43 0 0 1 .996-.972c.44-.24.94-.36 1.5-.36zm7.458 6.42c-.608 0-1.156-.136-1.644-.408a3.06 3.06 0 0 1-1.152-1.152c-.28-.488-.42-1.04-.42-1.656s.14-1.168.42-1.656.664-.868 1.152-1.14 1.036-.408 1.644-.408 1.156.136 1.644.408.868.652 1.14 1.14c.28.488.42 1.04.42 1.656s-.14 1.168-.42 1.656c-.272.488-.652.872-1.14 1.152-.488.272-1.036.408-1.644.408zm0-.756c.448 0 .848-.1 1.2-.3a2.16 2.16 0 0 0 .84-.876c.2-.376.3-.804.3-1.284s-.1-.908-.3-1.284-.48-.664-.84-.864c-.352-.208-.752-.312-1.2-.312s-.852.104-1.212.312c-.352.2-.632.488-.84.864-.2.376-.3.804-.3 1.284s.1.908.3 1.284a2.27 2.27 0 0 0 .84.876c.36.2.764.3 1.212.3zm8.16-5.664c.792 0 1.42.232 1.884.696.472.456.708 1.124.708 2.004V275h-.852v-3.576c0-.656-.164-1.156-.492-1.5s-.796-.516-1.404-.516c-.68 0-1.22.204-1.62.612-.392.4-.588.956-.588 1.668V275h-.852v-6.312h.816v1.164a2.34 2.34 0 0 1 .96-.888c.416-.216.896-.324 1.44-.324zm8.23 5.976c-.16.144-.36.256-.6.336-.232.072-.476.108-.732.108-.592 0-1.048-.16-1.368-.48s-.48-.772-.48-1.356v-3.816h-1.128v-.72h1.128v-1.38h.852v1.38h1.92v.72h-1.92v3.768c0 .376.092.664.276.864.192.192.464.288.816.288.176 0 .344-.028.504-.084a1.26 1.26 0 0 0 .432-.24l.3.612zm4.767-5.976c.792 0 1.42.232 1.884.696.472.456.708 1.124.708 2.004V275h-.852v-3.576c0-.656-.164-1.156-.492-1.5s-.796-.516-1.404-.516c-.68 0-1.22.204-1.62.612-.392.4-.588.956-.588 1.668V275h-.852v-8.904h.852v3.696a2.31 2.31 0 0 1 .96-.852c.408-.2.876-.3 1.404-.3zm6.597 6.42a5.03 5.03 0 0 1-1.476-.216c-.464-.152-.828-.34-1.092-.564l.384-.672c.264.208.596.38.996.516a4.07 4.07 0 0 0 1.248.192c.576 0 1-.088 1.272-.264a.87.87 0 0 0 .42-.768c0-.232-.076-.412-.228-.54a1.41 1.41 0 0 0-.576-.3c-.232-.072-.54-.14-.924-.204l-1.236-.288a1.91 1.91 0 0 1-.804-.516c-.216-.24-.324-.572-.324-.996 0-.528.22-.96.66-1.296s1.052-.504 1.836-.504c.408 0 .816.056 1.224.168.408.104.744.244 1.008.42l-.372.684c-.52-.36-1.14-.54-1.86-.54-.544 0-.956.096-1.236.288-.272.192-.408.444-.408.756 0 .24.076.432.228.576.16.144.356.252.588.324.232.064.552.132.96.204l1.212.288a1.78 1.78 0 0 1 .78.492c.216.232.324.552.324.96 0 .552-.232.992-.696 1.32-.456.32-1.092.48-1.908.48z" fill="#2d2e34"/><rect x="266.5" y="170.5" width="83" height="67" rx="1.5" fill="#fff" stroke="#2d2e34"/><path d="M303.982 188.4V201h-2.34v-10.638h-2.664V188.4h5.004zm11.625 10.62V201h-9.288v-1.566l5.004-4.752c.564-.54.942-1.008 1.134-1.404.204-.408.306-.8.306-1.206 0-.588-.198-1.038-.594-1.35s-.978-.468-1.746-.468c-1.284 0-2.268.438-2.952 1.314l-1.638-1.26c.492-.66 1.152-1.17 1.98-1.53.84-.372 1.776-.558 2.808-.558 1.368 0 2.46.324 3.276.972s1.224 1.53 1.224 2.646c0 .684-.144 1.326-.432 1.926s-.84 1.284-1.656 2.052l-3.366 3.204h5.94zm-22.678 13.62c.792 0 1.412.228 1.86.684.456.456.684 1.128.684 2.016V219h-.852v-3.576c0-.656-.16-1.156-.48-1.5-.312-.344-.756-.516-1.332-.516-.656 0-1.172.204-1.548.612-.376.4-.564.956-.564 1.668V219h-.852v-3.576c0-.656-.16-1.156-.48-1.5-.312-.344-.76-.516-1.344-.516-.648 0-1.164.204-1.548.612-.376.4-.564.956-.564 1.668V219h-.852v-6.312h.816v1.152c.224-.384.536-.68.936-.888s.86-.312 1.38-.312c.528 0 .984.112 1.368.336.392.224.684.556.876.996a2.43 2.43 0 0 1 .996-.972c.44-.24.94-.36 1.5-.36zm7.458 6.42c-.608 0-1.156-.136-1.644-.408a3.06 3.06 0 0 1-1.152-1.152c-.28-.488-.42-1.04-.42-1.656s.14-1.168.42-1.656.664-.868 1.152-1.14 1.036-.408 1.644-.408 1.156.136 1.644.408.868.652 1.14 1.14c.28.488.42 1.04.42 1.656s-.14 1.168-.42 1.656c-.272.488-.652.872-1.14 1.152-.488.272-1.036.408-1.644.408zm0-.756c.448 0 .848-.1 1.2-.3a2.16 2.16 0 0 0 .84-.876c.2-.376.3-.804.3-1.284s-.1-.908-.3-1.284-.48-.664-.84-.864c-.352-.208-.752-.312-1.2-.312s-.852.104-1.212.312c-.352.2-.632.488-.84.864-.2.376-.3.804-.3 1.284s.1.908.3 1.284a2.27 2.27 0 0 0 .84.876c.36.2.764.3 1.212.3zm8.16-5.664c.792 0 1.42.232 1.884.696.472.456.708 1.124.708 2.004V219h-.852v-3.576c0-.656-.164-1.156-.492-1.5s-.796-.516-1.404-.516c-.68 0-1.22.204-1.62.612-.392.4-.588.956-.588 1.668V219h-.852v-6.312h.816v1.164a2.34 2.34 0 0 1 .96-.888c.416-.216.896-.324 1.44-.324zm8.23 5.976c-.16.144-.36.256-.6.336-.232.072-.476.108-.732.108-.592 0-1.048-.16-1.368-.48s-.48-.772-.48-1.356v-3.816h-1.128v-.72h1.128v-1.38h.852v1.38h1.92v.72h-1.92v3.768c0 .376.092.664.276.864.192.192.464.288.816.288.176 0 .344-.028.504-.084a1.26 1.26 0 0 0 .432-.24l.3.612zm4.767-5.976c.792 0 1.42.232 1.884.696.472.456.708 1.124.708 2.004V219h-.852v-3.576c0-.656-.164-1.156-.492-1.5s-.796-.516-1.404-.516c-.68 0-1.22.204-1.62.612-.392.4-.588.956-.588 1.668V219h-.852v-8.904h.852v3.696a2.31 2.31 0 0 1 .96-.852c.408-.2.876-.3 1.404-.3zm6.597 6.42a5.03 5.03 0 0 1-1.476-.216c-.464-.152-.828-.34-1.092-.564l.384-.672c.264.208.596.38.996.516a4.07 4.07 0 0 0 1.248.192c.576 0 1-.088 1.272-.264a.87.87 0 0 0 .42-.768c0-.232-.076-.412-.228-.54a1.41 1.41 0 0 0-.576-.3c-.232-.072-.54-.14-.924-.204l-1.236-.288a1.91 1.91 0 0 1-.804-.516c-.216-.24-.324-.572-.324-.996 0-.528.22-.96.66-1.296s1.052-.504 1.836-.504c.408 0 .816.056 1.224.168.408.104.744.244 1.008.42l-.372.684c-.52-.36-1.14-.54-1.86-.54-.544 0-.956.096-1.236.288-.272.192-.408.444-.408.756 0 .24.076.432.228.576.16.144.356.252.588.324.232.064.552.132.96.204l1.212.288a1.78 1.78 0 0 1 .78.492c.216.232.324.552.324.96 0 .552-.232.992-.696 1.32-.456.32-1.092.48-1.908.48z" fill="#2d2e34"/><rect x="50.5" y="170.5" width="83" height="67" rx="1.5" fill="#fff" stroke="#2d2e34"/><path d="M87.35 188.4V201h-2.34v-10.638h-2.664V188.4h5.004zm10.67 5.976c.66.3 1.164.708 1.512 1.224.36.504.54 1.098.54 1.782 0 .768-.216 1.44-.648 2.016-.42.576-1.02 1.02-1.8 1.332-.78.3-1.686.45-2.718.45s-1.938-.15-2.718-.45c-.768-.312-1.362-.756-1.782-1.332s-.63-1.248-.63-2.016c0-.684.174-1.278.522-1.782.348-.516.846-.924 1.494-1.224-.504-.276-.894-.636-1.17-1.08-.264-.456-.396-.978-.396-1.566 0-.708.192-1.326.576-1.854.396-.528.948-.936 1.656-1.224s1.524-.432 2.448-.432c.936 0 1.758.144 2.466.432s1.26.696 1.656 1.224.594 1.146.594 1.854c0 .588-.138 1.104-.414 1.548s-.672.8-1.188 1.098zm-3.114-4.32c-.732 0-1.314.156-1.746.468-.42.312-.63.75-.63 1.314 0 .54.2.972.63 1.296.432.312 1.014.468 1.746.468.744 0 1.332-.156 1.764-.468a1.54 1.54 0 0 0 .648-1.296c0-.564-.222-1.002-.666-1.314-.432-.312-1.014-.468-1.746-.468zm0 9.288c.864 0 1.548-.18 2.052-.54s.756-.858.756-1.494c0-.624-.252-1.116-.756-1.476s-1.188-.54-2.052-.54-1.542.18-2.034.54a1.73 1.73 0 0 0-.738 1.476c0 .636.246 1.134.738 1.494s1.17.54 2.034.54zM76.93 212.64c.792 0 1.412.228 1.86.684.456.456.684 1.128.684 2.016V219h-.852v-3.576c0-.656-.16-1.156-.48-1.5-.312-.344-.756-.516-1.332-.516-.656 0-1.172.204-1.548.612-.376.4-.564.956-.564 1.668V219h-.852v-3.576c0-.656-.16-1.156-.48-1.5-.312-.344-.76-.516-1.344-.516-.648 0-1.164.204-1.548.612-.376.4-.564.956-.564 1.668V219h-.852v-6.312h.816v1.152c.224-.384.536-.68.936-.888s.86-.312 1.38-.312c.528 0 .984.112 1.368.336.392.224.684.556.876.996a2.43 2.43 0 0 1 .996-.972c.44-.24.94-.36 1.5-.36zm7.458 6.42c-.608 0-1.156-.136-1.644-.408a3.06 3.06 0 0 1-1.152-1.152c-.28-.488-.42-1.04-.42-1.656s.14-1.168.42-1.656.664-.868 1.152-1.14 1.036-.408 1.644-.408 1.156.136 1.644.408.868.652 1.14 1.14c.28.488.42 1.04.42 1.656s-.14 1.168-.42 1.656c-.272.488-.652.872-1.14 1.152-.488.272-1.036.408-1.644.408zm0-.756c.448 0 .848-.1 1.2-.3a2.16 2.16 0 0 0 .84-.876c.2-.376.3-.804.3-1.284s-.1-.908-.3-1.284-.48-.664-.84-.864c-.352-.208-.752-.312-1.2-.312s-.852.104-1.212.312c-.352.2-.632.488-.84.864-.2.376-.3.804-.3 1.284s.1.908.3 1.284a2.27 2.27 0 0 0 .84.876c.36.2.764.3 1.212.3zm8.16-5.664c.792 0 1.42.232 1.884.696.472.456.708 1.124.708 2.004V219h-.852v-3.576c0-.656-.164-1.156-.492-1.5s-.796-.516-1.404-.516c-.68 0-1.22.204-1.62.612-.392.4-.588.956-.588 1.668V219h-.852v-6.312h.816v1.164a2.34 2.34 0 0 1 .96-.888c.416-.216.896-.324 1.44-.324zm8.23 5.976c-.16.144-.36.256-.6.336a2.46 2.46 0 0 1-.732.108c-.592 0-1.048-.16-1.368-.48s-.48-.772-.48-1.356v-3.816h-1.128v-.72h1.128v-1.38h.852v1.38h1.92v.72h-1.92v3.768c0 .376.092.664.276.864.192.192.464.288.816.288.176 0 .344-.028.504-.084a1.26 1.26 0 0 0 .432-.24l.3.612zm4.767-5.976c.792 0 1.42.232 1.884.696.472.456.708 1.124.708 2.004V219h-.852v-3.576c0-.656-.164-1.156-.492-1.5s-.796-.516-1.404-.516c-.68 0-1.22.204-1.62.612-.392.4-.588.956-.588 1.668V219h-.852v-8.904h.852v3.696a2.31 2.31 0 0 1 .96-.852c.408-.2.876-.3 1.404-.3zm6.597 6.42a5.03 5.03 0 0 1-1.476-.216c-.464-.152-.828-.34-1.092-.564l.384-.672c.264.208.596.38.996.516a4.07 4.07 0 0 0 1.248.192c.576 0 1-.088 1.272-.264a.87.87 0 0 0 .42-.768c0-.232-.076-.412-.228-.54a1.41 1.41 0 0 0-.576-.3c-.232-.072-.54-.14-.924-.204l-1.236-.288a1.91 1.91 0 0 1-.804-.516c-.216-.24-.324-.572-.324-.996 0-.528.22-.96.66-1.296s1.052-.504 1.836-.504c.408 0 .816.056 1.224.168.408.104.744.244 1.008.42l-.372.684c-.52-.36-1.14-.54-1.86-.54-.544 0-.956.096-1.236.288-.272.192-.408.444-.408.756 0 .24.076.432.228.576.16.144.356.252.588.324.232.064.552.132.96.204l1.212.288a1.78 1.78 0 0 1 .78.492c.216.232.324.552.324.96 0 .552-.232.992-.696 1.32-.456.32-1.092.48-1.908.48z" fill="#2d2e34"/><rect x="158.5" y="105.5" width="83" height="96" rx="1.5" fill="#fff" stroke="#2a9ff4"/><g fill="#2a9ff4"><rect x="158" y="172" width="84" height="30" rx="2"/><path d="M199.203 134.02V136h-9.288v-1.566l5.004-4.752c.564-.54.942-1.008 1.134-1.404.204-.408.306-.8.306-1.206 0-.588-.198-1.038-.594-1.35s-.978-.468-1.746-.468c-1.284 0-2.268.438-2.952 1.314l-1.638-1.26c.492-.66 1.152-1.17 1.98-1.53.84-.372 1.776-.558 2.808-.558 1.368 0 2.46.324 3.276.972s1.224 1.53 1.224 2.646c0 .684-.144 1.326-.432 1.926s-.84 1.284-1.656 2.052l-3.366 3.204h5.94zm12.32-.882H209.3V136h-2.268v-2.862H200.1v-1.62l6.2-8.118h2.502l-5.85 7.758h4.122v-2.538h2.196v2.538h2.232v1.98zM185.93 147.64c.792 0 1.412.228 1.86.684.456.456.684 1.128.684 2.016V154h-.852v-3.576c0-.656-.16-1.156-.48-1.5-.312-.344-.756-.516-1.332-.516-.656 0-1.172.204-1.548.612-.376.4-.564.956-.564 1.668V154h-.852v-3.576c0-.656-.16-1.156-.48-1.5-.312-.344-.76-.516-1.344-.516-.648 0-1.164.204-1.548.612-.376.4-.564.956-.564 1.668V154h-.852v-6.312h.816v1.152c.224-.384.536-.68.936-.888s.86-.312 1.38-.312c.528 0 .984.112 1.368.336.392.224.684.556.876.996a2.43 2.43 0 0 1 .996-.972c.44-.24.94-.36 1.5-.36zm7.458 6.42c-.608 0-1.156-.136-1.644-.408a3.06 3.06 0 0 1-1.152-1.152c-.28-.488-.42-1.04-.42-1.656s.14-1.168.42-1.656.664-.868 1.152-1.14 1.036-.408 1.644-.408 1.156.136 1.644.408.868.652 1.14 1.14c.28.488.42 1.04.42 1.656s-.14 1.168-.42 1.656c-.272.488-.652.872-1.14 1.152-.488.272-1.036.408-1.644.408zm0-.756c.448 0 .848-.1 1.2-.3a2.16 2.16 0 0 0 .84-.876c.2-.376.3-.804.3-1.284s-.1-.908-.3-1.284-.48-.664-.84-.864c-.352-.208-.752-.312-1.2-.312s-.852.104-1.212.312c-.352.2-.632.488-.84.864-.2.376-.3.804-.3 1.284s.1.908.3 1.284a2.27 2.27 0 0 0 .84.876c.36.2.764.3 1.212.3zm8.16-5.664c.792 0 1.42.232 1.884.696.472.456.708 1.124.708 2.004V154h-.852v-3.576c0-.656-.164-1.156-.492-1.5s-.796-.516-1.404-.516c-.68 0-1.22.204-1.62.612-.392.4-.588.956-.588 1.668V154h-.852v-6.312h.816v1.164a2.34 2.34 0 0 1 .96-.888c.416-.216.896-.324 1.44-.324zm8.23 5.976c-.16.144-.36.256-.6.336-.232.072-.476.108-.732.108-.592 0-1.048-.16-1.368-.48s-.48-.772-.48-1.356v-3.816h-1.128v-.72h1.128v-1.38h.852v1.38h1.92v.72h-1.92v3.768c0 .376.092.664.276.864.192.192.464.288.816.288.176 0 .344-.028.504-.084a1.26 1.26 0 0 0 .432-.24l.3.612zm4.767-5.976c.792 0 1.42.232 1.884.696.472.456.708 1.124.708 2.004V154h-.852v-3.576c0-.656-.164-1.156-.492-1.5s-.796-.516-1.404-.516c-.68 0-1.22.204-1.62.612-.392.4-.588.956-.588 1.668V154h-.852v-8.904h.852v3.696a2.31 2.31 0 0 1 .96-.852c.408-.2.876-.3 1.404-.3zm6.597 6.42a5.03 5.03 0 0 1-1.476-.216c-.464-.152-.828-.34-1.092-.564l.384-.672c.264.208.596.38.996.516a4.07 4.07 0 0 0 1.248.192c.576 0 1-.088 1.272-.264a.87.87 0 0 0 .42-.768c0-.232-.076-.412-.228-.54a1.41 1.41 0 0 0-.576-.3c-.232-.072-.54-.14-.924-.204l-1.236-.288a1.91 1.91 0 0 1-.804-.516c-.216-.24-.324-.572-.324-.996 0-.528.22-.96.66-1.296s1.052-.504 1.836-.504c.408 0 .816.056 1.224.168.408.104.744.244 1.008.42l-.372.684c-.52-.36-1.14-.54-1.86-.54-.544 0-.956.096-1.236.288-.272.192-.408.444-.408.756 0 .24.076.432.228.576.16.144.356.252.588.324.232.064.552.132.96.204l1.212.288a1.78 1.78 0 0 1 .78.492c.216.232.324.552.324.96 0 .552-.232.992-.696 1.32-.456.32-1.092.48-1.908.48z"/></g><g fill="#fff" stroke="#fff" stroke-miterlimit="16" stroke-linejoin="round"><use xlink:href="#B"/><use xlink:href="#B" x="16"/><use xlink:href="#B" x="32"/></g><defs ><path id="B" d="M184.476 181.845a.5.5 0 0 0-.952 0l-1 3.1h-3.27a.5.5 0 0 0-.294.904l2.645 1.922-1 3.1a.5.5 0 0 0 .769.559l2.645-1.922 2.645 1.922a.5.5 0 0 0 .769-.559l-1-3.1 2.645-1.922a.5.5 0 0 0-.294-.904h-3.27l-1-3.1z"/></defs></svg>