<svg width="40" height="40" viewBox="0 0 40 40" fill="none" xmlns="http://www.w3.org/2000/svg">
<circle cx="20" cy="20" r="20" fill="#2A9FF4"/>
<g clip-path="url(#clip0)">
<path d="M16.001 20.0005C16.001 17.7914 17.7914 16 20.0005 16C22.2095 16 24.001 17.7914 24.001 20.0005C24.001 22.2095 22.2095 24.001 20.0005 24.001C17.7914 24.001 16.001 22.2095 16.001 20.0005ZM13.838 20.0005C13.838 23.4038 16.5971 26.163 20.0005 26.163C23.4038 26.163 26.163 23.4038 26.163 20.0005C26.163 16.5971 23.4038 13.838 20.0005 13.838C16.5971 13.838 13.838 16.5971 13.838 20.0005ZM24.9668 13.5941C24.9668 14.3891 25.6109 15.0342 26.4068 15.0342C27.2017 15.0342 27.8469 14.3891 27.8469 13.5941C27.8469 12.7992 27.2027 12.155 26.4068 12.155C25.6109 12.155 24.9668 12.7992 24.9668 13.5941ZM15.1523 29.7689C13.982 29.7151 13.3465 29.5212 12.924 29.3561C12.3634 29.1381 11.964 28.878 11.5435 28.4584C11.124 28.0389 10.8628 27.6395 10.6459 27.0788C10.4807 26.6564 10.2859 26.0199 10.233 24.8506C10.1745 23.5853 10.163 23.206 10.163 20.0014C10.163 16.7968 10.1754 16.4176 10.233 15.1523C10.2868 13.982 10.4817 13.3474 10.6459 12.924C10.8638 12.3634 11.124 11.964 11.5435 11.5435C11.963 11.124 12.3624 10.8628 12.924 10.6459C13.3465 10.4807 13.983 10.2859 15.1523 10.233C16.4176 10.1745 16.7968 10.163 20.0005 10.163C23.2051 10.163 23.5843 10.1754 24.8496 10.233C26.0199 10.2868 26.6545 10.4817 27.0779 10.6459C27.6385 10.8628 28.0379 11.124 28.4584 11.5435C28.878 11.963 29.1381 12.3634 29.3561 12.924C29.5212 13.3465 29.7161 13.983 29.7689 15.1523C29.8274 16.4186 29.839 16.7968 29.839 20.0014C29.839 23.2051 29.8274 23.5853 29.7689 24.8506C29.7151 26.0209 29.5202 26.6564 29.3561 27.0788C29.1381 27.6395 28.878 28.0389 28.4584 28.4584C28.0389 28.878 27.6385 29.1381 27.0779 29.3561C26.6555 29.5212 26.019 29.7161 24.8496 29.7689C23.5843 29.8274 23.2051 29.839 20.0005 29.839C16.7968 29.838 16.4167 29.8265 15.1523 29.7689ZM15.0534 8.07296C13.7756 8.13153 12.9039 8.33409 12.1406 8.63075C11.3515 8.937 10.6823 9.34789 10.0151 10.0151C9.34693 10.6814 8.93604 11.3496 8.62979 12.1397C8.33313 12.9029 8.13057 13.7746 8.072 15.0524C8.01344 16.3322 8 16.7411 8 20.0005C8 23.2598 8.01344 23.6688 8.07296 24.9476C8.13153 26.2254 8.33409 27.0971 8.63075 27.8603C8.937 28.6495 9.34693 29.3196 10.0151 29.9858C10.6823 30.6531 11.3505 31.063 12.1406 31.3702C12.9048 31.6669 13.7756 31.8694 15.0534 31.928C16.3341 31.9866 16.7421 32.001 20.0005 32.001C23.2608 32.001 23.6688 31.9875 24.9476 31.928C26.2254 31.8694 27.0971 31.6669 27.8603 31.3702C28.6495 31.063 29.3186 30.6531 29.9858 29.9858C30.6531 29.3186 31.063 28.6495 31.3702 27.8603C31.6669 27.0971 31.8704 26.2254 31.928 24.9476C31.9866 23.6669 32 23.2589 32 20.0005C32 16.7421 31.9866 16.3322 31.928 15.0534C31.8694 13.7756 31.6669 12.9039 31.3702 12.1406C31.063 11.3515 30.6531 10.6823 29.9858 10.0151C29.3186 9.34789 28.6495 8.937 27.8613 8.63075C27.0971 8.33409 26.2254 8.13057 24.9485 8.07296C23.6697 8.0144 23.2608 8 20.0014 8C16.7411 8 16.3331 8.01344 15.0534 8.07296Z" fill="white"/>
</g>
<defs>
<clipPath id="clip0">
<rect width="24" height="24" fill="white" transform="translate(8 8)"/>
</clipPath>
</defs>
</svg>