<svg width="48" height="48" viewBox="0 0 48 48" fill="none" xmlns="http://www.w3.org/2000/svg">
<path d="M23.8462 43C29.1066 43 40.556 43 44.0003 43C44.5526 43 45 42.5523 45 42V4C45 3.44772 44.5523 3 44 3H4C3.44772 3 3 3.44772 3 4V20.7692" stroke="#2A9FF4"/>
<path d="M9 11H28" stroke="#2A9FF4"/>
<path d="M9 17H28" stroke="#2A9FF4"/>
<path d="M34 18.8667L36.087 21L40 17" stroke="#2A9FF4"/>
<path d="M34 26.8667L36.087 29L40 25" stroke="#2A9FF4"/>
<path d="M34 35.8667L36.087 38L40 34" stroke="#2A9FF4"/>
<path d="M9 33.8667L11.087 36L15 32" stroke="#2A9FF4"/>
<path d="M2.5 27.5445V30.6136V37.6066C2.5 38.0732 2.71709 38.5131 3.08735 38.797L11.0874 44.9303C11.6258 45.3431 12.3742 45.3431 12.9126 44.9303L20.9126 38.797C21.2829 38.5131 21.5 38.0732 21.5 37.6066V30.6136V27.5445C21.5 26.8883 21.0734 26.3082 20.4469 26.1127L12.4469 23.6157C12.1559 23.5249 11.8441 23.5249 11.5531 23.6157L3.55308 26.1127C2.92662 26.3082 2.5 26.8883 2.5 27.5445Z" stroke="#2A9FF4"/>
<path d="M11.7179 26.083L5.71786 27.8475C5.29226 27.9727 5 28.3633 5 28.8069V29.451V36.3193C5 36.6364 5.15043 36.9348 5.40542 37.1233L11.4054 41.5603C11.7587 41.8216 12.2413 41.8216 12.5946 41.5603L18.5946 37.1233C18.8496 36.9348 19 36.6364 19 36.3193V28.8069C19 28.3633 18.7077 27.9727 18.2821 27.8475L12.2821 26.083C12.0979 26.0288 11.9021 26.0288 11.7179 26.083Z" stroke="#2A9FF4"/>
<path d="M33 3V12.382C33 13.1253 33.7823 13.6088 34.4472 13.2764L36.5528 12.2236C36.8343 12.0828 37.1657 12.0828 37.4472 12.2236L39.5528 13.2764C40.2177 13.6088 41 13.1253 41 12.382V3" stroke="#2A9FF4"/>
</svg>
