<svg width="40" height="40" viewBox="0 0 40 40" fill="none" xmlns="http://www.w3.org/2000/svg">
<circle cx="20" cy="20" r="20" fill="#2A9FF4"/>
<path d="M31 21.8887V30.0223H26.2847V22.4335C26.2847 20.5271 25.6027 19.2261 23.8959 19.2261C22.593 19.2261 21.8176 20.1029 21.4765 20.951C21.3521 21.2542 21.3201 21.6763 21.3201 22.1007V30.0223H16.6032C16.6032 30.0223 16.6667 17.1693 16.6032 15.8377H21.3196V17.8483C21.3101 17.8633 21.2976 17.8795 21.2886 17.8941H21.3196V17.8483C21.9462 16.8832 23.0653 15.5044 25.5702 15.5044C28.6735 15.5044 31 17.5318 31 21.8887ZM11.6691 9C10.0555 9 9 10.0584 9 11.4503C9 12.8118 10.0249 13.9024 11.6065 13.9024H11.638C13.2829 13.9024 14.3059 12.812 14.3059 11.4503C14.2749 10.0584 13.2829 9 11.6691 9ZM9.28014 30.0223H13.9953V15.8377H9.28014V30.0223Z" fill="white"/>
</svg>