<svg width="95" height="59" viewBox="0 0 95 59" fill="none" xmlns="http://www.w3.org/2000/svg">
<g clip-path="url(#clip0)">
<path d="M60.7217 54.2253H64.2152V55.034H60.7217V54.2253ZM2.61322 49.3203L2.30095 57.4376V57.5786C2.30095 58.2658 2.50334 58.4075 3.59891 58.4851V58.8612C2.80147 58.7998 2.48759 58.784 2.05049 58.784C1.61219 58.784 1.29952 58.7998 0.486328 58.8612V58.4851C1.58068 58.4075 1.73782 58.2819 1.76893 57.4376L2.09735 49.759V49.6665C2.09735 48.9458 1.878 48.7899 0.799808 48.7277V48.3358C1.40859 48.3831 1.64329 48.3988 2.0816 48.3988C2.57811 48.4033 3.07443 48.3776 3.5678 48.3217L6.47556 56.2338L9.43059 48.3217C10.1355 48.3831 10.4635 48.3988 10.933 48.3988C11.3224 48.3988 11.5736 48.3831 12.1675 48.3358V48.7277C11.1046 48.7899 10.8687 48.9458 10.8687 49.6495V49.759L11.0412 57.4376C11.0582 58.2819 11.198 58.4063 12.3242 58.4851V58.8612C11.3393 58.7675 10.9633 58.7352 10.3694 58.7352C9.77437 58.7352 9.39909 58.7659 8.41421 58.8612V58.4851C9.47705 58.4233 9.71176 58.2504 9.71176 57.5168V57.4396L9.57239 49.3381L6.99103 56.3122L6.80399 56.8288L6.58504 57.4065L6.38063 58.0028L6.20895 58.5182H5.97424L5.80296 58.0181L5.5832 57.4065L5.36465 56.7973L5.17681 56.2504L2.61322 49.3203ZM14.3554 54.3715C14.5121 52.5734 15.1055 51.652 16.1066 51.652C17.1234 51.652 17.6392 52.5274 17.7325 54.3715H14.3554ZM16.389 58.4685C14.9658 58.4685 14.3392 57.3738 14.3251 54.9342H18.9853C18.9533 52.5262 17.9681 51.2436 16.1223 51.2436C14.2471 51.2436 13.0736 52.7609 13.0736 55.1693C13.0736 57.5774 14.2475 58.9844 16.2637 58.9844C17.7964 58.9844 18.7978 58.0298 18.9998 56.4196H18.3736C18.1862 57.7487 17.4982 58.4685 16.389 58.4685ZM19.9156 51.8221V51.5413C20.8063 51.4633 21.3388 51.3696 21.9795 51.1814C22.0578 51.7607 22.0889 52.0099 22.1201 52.4797V52.6522C22.465 51.7606 23.136 51.244 23.95 51.244C24.7313 51.244 25.3106 51.7606 25.3106 52.512C25.3106 52.9657 25.0448 53.2622 24.6537 53.2622C24.2942 53.2622 24.0131 53.0428 24.0131 52.731C24.0131 52.6999 24.0292 52.6385 24.0433 52.5734L24.0745 52.4179V52.2757C24.0745 52.0568 23.8866 51.9008 23.605 51.9008C22.7931 51.9008 22.2772 52.8857 22.2772 54.4341V57.7018C22.2772 58.3756 22.4327 58.5005 23.3873 58.5469V58.86C22.526 58.7828 22.198 58.7655 21.6506 58.7655C21.0879 58.7655 20.7599 58.7828 19.9002 58.86V58.5469C20.8532 58.5005 21.0253 58.3756 21.0253 57.7018V52.59C21.0104 51.917 20.9312 51.8398 20.1192 51.8233L19.9156 51.8221ZM31.293 51.1042V53.6852H30.948C30.6664 52.3234 30.0883 51.6669 29.135 51.6669C27.961 51.6669 27.2739 52.9346 27.2739 55.1705C27.2739 57.3593 27.8835 58.4698 29.0873 58.4698C30.0568 58.4698 30.6353 57.7822 30.8231 56.4067H31.4638C31.2602 58.0803 30.3691 58.9868 28.9625 58.9868C27.1483 58.9868 25.9137 57.4538 25.9137 55.1718C25.9137 52.8405 27.164 51.246 29.0093 51.246C29.6819 51.246 30.1041 51.4185 30.6054 51.9033L31.0263 51.1054H31.2934V51.1042H31.293ZM33.8606 54.3715C34.0169 52.5734 34.6104 51.652 35.6118 51.652C36.6282 51.652 37.144 52.5274 37.237 54.3715H33.8606ZM35.8934 58.4685C34.4702 58.4685 33.8452 57.3738 33.8295 54.9342H38.4889C38.4578 52.5262 37.4717 51.2436 35.628 51.2436C33.7503 51.2436 32.5772 52.7609 32.5772 55.1693C32.5772 57.5774 33.7499 58.9844 35.7685 58.9844C37.3008 58.9844 38.3018 58.0298 38.5042 56.4196H37.8789C37.6914 57.7487 37.0035 58.4685 35.8934 58.4685ZM42.8194 58.5635C41.6935 58.5635 41.0997 57.3895 41.0997 55.1548C41.0997 52.8885 41.6467 51.7776 42.7729 51.7776C43.9307 51.7776 44.525 52.9657 44.525 55.2659C44.5245 57.4372 43.9457 58.5635 42.8194 58.5635ZM45.7591 57.2332V48.2053C44.9774 48.4146 44.2745 48.5386 43.3991 48.6323V48.8989C44.384 48.8989 44.5092 49.0084 44.5092 49.8212V52.5573C43.9307 51.6197 43.4771 51.3373 42.6324 51.3373C40.9595 51.3373 39.786 52.9164 39.786 55.1681C39.786 57.4202 40.9737 58.9981 42.6792 58.9981C43.5704 58.9981 44.1804 58.5918 44.6179 57.7168C44.6801 58.311 44.6801 58.3732 44.8372 58.9666C45.4775 58.763 45.7441 58.7008 46.6668 58.5918L46.9011 58.5611V58.2952C45.8532 58.2641 45.7591 58.187 45.7591 57.2332ZM48.7763 54.3715C48.9327 52.5734 49.5265 51.652 50.5279 51.652C51.5443 51.652 52.0594 52.5274 52.1531 54.3715H48.7763ZM50.8095 58.4685C49.3855 58.4685 48.7614 57.3738 48.7448 54.9342H53.4046C53.3731 52.5262 52.3882 51.2436 50.5437 51.2436C48.666 51.2436 47.4937 52.7609 47.4937 55.1693C47.4937 57.5774 48.666 58.9844 50.6843 58.9844C52.2165 58.9844 53.2171 58.0298 53.4195 56.4196H52.7938C52.6076 57.7487 51.9184 58.4685 50.8095 58.4685ZM54.7324 59.0006V56.3881L55.0766 56.3732C55.3574 57.7968 56.0146 58.4851 57.1098 58.4851C58.0312 58.4851 58.72 57.8747 58.72 57.0789C58.72 56.5473 58.4235 56.1881 57.6559 55.8432L57.0621 55.5765L56.343 55.2485C55.2002 54.7173 54.8411 54.279 54.8411 53.3717C54.8411 52.1359 55.8098 51.2929 57.1869 51.2929C57.7969 51.2929 58.2514 51.4334 58.7822 51.7914L59.0472 51.1507H59.3288V53.5745H58.9684C58.8266 52.323 58.3116 51.7299 57.3271 51.7299C56.4986 51.7299 55.8559 52.2931 55.8559 53.0279C55.8559 53.6528 56.0906 53.8572 57.5138 54.4822L58.171 54.7646C59.3583 55.2788 59.782 55.7805 59.782 56.7036C59.782 58.0173 58.7337 58.9541 57.2653 58.9541C56.5454 58.9541 55.9823 58.7663 55.3885 58.2977L55.0116 59.0006H54.732H54.7324ZM68.4787 53.6052C69.3068 53.6052 69.7758 53.7466 70.1362 54.1053C70.4961 54.4664 70.7001 55.1382 70.7001 55.8876C70.7001 57.4514 69.9172 58.328 68.5259 58.328H67.9632C67.1339 58.328 66.9937 58.2019 66.9937 57.514V53.604L68.4787 53.6052ZM66.9925 48.8666H68.3219C69.6356 48.8666 70.2137 49.5089 70.2137 50.9624C70.2137 51.6815 70.042 52.1986 69.6982 52.6037C69.3541 52.996 68.9323 53.1196 68.0573 53.1196H66.9937V48.8662H66.9925V48.8666ZM71.605 50.9309C71.605 50.1177 71.2616 49.3995 70.667 48.9446C70.1361 48.5539 69.527 48.3827 68.509 48.3827H64.3966V48.7733C65.5232 48.8363 65.6788 48.9611 65.6788 49.8054V57.3891C65.6788 58.2338 65.5527 58.3421 64.3966 58.4374V58.8135H68.3526C69.5092 58.8135 70.1357 58.6717 70.793 58.2653C71.5743 57.7652 72.0901 56.8111 72.0901 55.8278C72.0901 54.9815 71.7302 54.216 71.1206 53.7486C70.793 53.4985 70.4484 53.3559 69.8849 53.2477C71.0119 52.8235 71.605 52.0257 71.605 50.9309ZM74.6428 54.3715C74.8 52.5734 75.3938 51.652 76.3952 51.652C77.4108 51.652 77.9275 52.5274 78.0204 54.3715H74.6428ZM76.6768 58.4685C75.2536 58.4685 74.6271 57.3738 74.6121 54.9342H79.2727C79.2412 52.5262 78.2555 51.2436 76.4102 51.2436C74.5337 51.2436 73.3606 52.7609 73.3606 55.1693C73.3606 57.5774 74.5337 58.9844 76.5504 58.9844C78.0826 58.9844 79.0836 58.0298 79.2868 56.4196H78.6611C78.4749 57.7487 77.7869 58.4685 76.6768 58.4685ZM80.0996 51.8843V51.6197C81.0069 51.4936 81.5386 51.3696 82.1631 51.1503C82.2423 51.5114 82.2895 51.9166 82.3198 52.5108C82.8834 51.6657 83.5237 51.2916 84.4314 51.2916C85.3702 51.2916 86.1822 51.7744 86.4961 52.5415C86.6532 52.9176 86.7312 53.3547 86.7312 53.9481V57.7014C86.7312 58.3744 86.8875 58.4992 87.8405 58.5457V58.8588C87.0119 58.78 86.6997 58.7651 86.1365 58.7651C85.5568 58.7651 85.245 58.78 84.431 58.8588V58.5457C85.2753 58.5158 85.4789 58.3587 85.4789 57.7333V53.9017C85.4789 52.5415 85.0725 51.9933 84.0723 51.9933C83.0078 51.9933 82.4455 52.6668 82.4455 53.9481V57.7333C82.4455 58.3587 82.6499 58.5158 83.4635 58.5457V58.8588C82.6499 58.78 82.3376 58.7651 81.7741 58.7651C81.2267 58.7651 80.8975 58.78 80.0847 58.8588V58.5457C81.0376 58.4992 81.1948 58.3744 81.1948 57.7014V52.636C81.179 51.9933 81.0853 51.9008 80.304 51.9008C80.2556 51.9008 80.1784 51.8843 80.0996 51.8843ZM88.448 58.8135L92.6857 51.8386H90.762C89.7464 51.8386 89.4947 52.0568 88.9324 53.4646H88.6209L88.9809 51.4318H94.3601L90.1063 58.4063H91.9351C92.9995 58.4063 93.4366 57.985 93.9061 56.561H94.2345L93.8285 58.8135H88.448Z" fill="#A4A6AE"/>
<path d="M66.5545 33.7811C68.6379 30.3167 69.7359 26.3493 69.7301 22.3067C69.7301 9.98691 59.7424 0 47.423 0C35.1031 0 25.1162 9.98731 25.1162 22.3067C25.1105 26.3494 26.2088 30.3169 28.2926 33.7811L28.2114 33.8461L28.3084 33.8085C32.2127 40.2825 39.3117 44.6135 47.423 44.6135C55.5347 44.6135 62.6328 40.2825 66.5367 33.8085L66.6337 33.8461L66.5545 33.7811ZM66.9896 22.3067C66.9934 25.7228 66.0978 29.0797 64.3929 32.04L50.5933 20.9256L47.7631 2.75022C58.4113 2.932 66.9896 11.6149 66.9896 22.3067ZM27.8588 22.3067C27.8588 11.6153 36.4362 2.93241 47.0844 2.75022L44.2542 20.9256L30.4547 32.04C28.7503 29.0795 27.855 25.7227 27.8588 22.3067ZM47.4238 41.8717C40.4812 41.8717 34.3873 38.2522 30.9148 32.8006L47.4238 26.4139L63.9328 32.801C60.4598 38.2522 54.3672 41.8717 47.4238 41.8717Z" fill="#A4A6AE"/>
</g>
<defs>
<clipPath id="clip0">
<rect width="93.8892" height="59" fill="white" transform="translate(0.478516)"/>
</clipPath>
</defs>
</svg>
