<svg width="48" height="48" viewBox="0 0 48 48" fill="none" xmlns="http://www.w3.org/2000/svg">
<path d="M2.86732 22.8575C2.94208 21.8109 3.81296 21 4.86224 21H43.1378C44.187 21 45.0579 21.8109 45.1327 22.8575L45.847 32.8575C45.9297 34.0152 45.0127 35 43.852 35H4.14795C2.98727 35 2.07034 34.0152 2.15304 32.8575L2.86732 22.8575Z" stroke="#2A9FF4"/>
<path d="M10 21C10 20.3434 10.1423 19.6932 10.4187 19.0866C10.6951 18.48 11.1002 17.9288 11.6109 17.4645C12.1216 17.0002 12.728 16.6319 13.3952 16.3806C14.0625 16.1293 14.7777 16 15.5 16C16.2223 16 16.9375 16.1293 17.6048 16.3806C18.2721 16.6319 18.8784 17.0002 19.3891 17.4645C19.8998 17.9288 20.3049 18.48 20.5813 19.0866C20.8577 19.6932 21 20.3434 21 21" stroke="#2A9FF4"/>
<path d="M5.66406 21L8.85803 9.46624C9.09795 8.59984 9.88648 8 10.7855 8H36.5426C37.4416 8 38.2302 8.59984 38.4701 9.46624L41.6641 21" stroke="#2A9FF4"/>
<path d="M3 24.5H7.7802C8.41124 24.5 8.88454 25.0773 8.76078 25.6961L8.16078 28.6961C8.06729 29.1635 7.65688 29.5 7.1802 29.5H2" stroke="#2A9FF4"/>
<path d="M41 17H45C45.5523 17 46 17.4477 46 18V20C46 20.5523 45.5523 21 45 21H41" stroke="#2A9FF4"/>
<path d="M13 35L13 38C13 39.1046 12.1046 40 11 40L8 40C6.89543 40 6 39.1046 6 38L6 35" stroke="#2A9FF4"/>
<path d="M42 35L42 38C42 39.1046 41.1046 40 40 40L37 40C35.8954 40 35 39.1046 35 38L35 35" stroke="#2A9FF4"/>
<path d="M46 30L40.8198 30C40.3431 30 39.9327 29.6635 39.8392 29.1961L39.2392 26.1961C39.1155 25.5773 39.5888 25 40.2198 25L45 25" stroke="#2A9FF4"/>
<path d="M5.33333 21L3 21C2.44771 21 2 20.5523 2 20L2 18C2 17.4477 2.44772 17 3 17L7 17" stroke="#2A9FF4"/>
<path d="M2 33H46" stroke="#2A9FF4"/>
<path d="M25 27H35" stroke="#2A9FF4"/>
<path d="M13 27H23" stroke="#2A9FF4"/>
</svg>
