<svg width="24" height="24" viewBox="0 0 24 24" fill="none" xmlns="http://www.w3.org/2000/svg">
<g clip-path="url(#clip0)">
<circle cx="12" cy="12" r="12" fill="#2A9FF4"/>
<path d="M8.7998 16.8002V7.2002H12.1836C13.4659 7.2002 14.3017 7.24822 14.6912 7.34426C15.2896 7.48833 15.7906 7.80265 16.1943 8.28723C16.598 8.76745 16.7998 9.38955 16.7998 10.1535C16.7998 10.7429 16.6834 11.2384 16.4507 11.64C16.218 12.0417 15.9212 12.3582 15.5603 12.5896C15.2041 12.8166 14.8408 12.9672 14.4703 13.0414C13.9669 13.1331 13.2379 13.1789 12.2833 13.1789H10.9084V16.8002H8.7998ZM10.9084 8.82421V11.5484H12.0625C12.8936 11.5484 13.4493 11.4981 13.7295 11.3977C14.0097 11.2973 14.2281 11.1402 14.3848 10.9263C14.5463 10.7123 14.6271 10.4635 14.6271 10.1797C14.6271 9.83048 14.5154 9.54235 14.2922 9.31534C14.069 9.08833 13.7864 8.94644 13.4445 8.88969C13.1928 8.84603 12.687 8.82421 11.9271 8.82421H10.9084Z" fill="white"/>
</g>
<defs>
<clipPath id="clip0">
<rect width="24" height="24" fill="white" transform="matrix(1 0 0 -1 0 24)"/>
</clipPath>
</defs>
</svg>
