<svg width="46" height="34" viewBox="0 0 46 34" fill="none" xmlns="http://www.w3.org/2000/svg">
<path d="M1.86732 15.8575C1.94208 14.8109 2.81296 14 3.86224 14H42.1378C43.187 14 44.0579 14.8109 44.1327 15.8575L44.847 25.8575C44.9297 27.0152 44.0127 28 42.852 28H3.14795C1.98727 28 1.07034 27.0152 1.15304 25.8575L1.86732 15.8575Z" stroke="#8FC640"/>
<path d="M9 14C9 13.3434 9.14226 12.6932 9.41866 12.0866C9.69506 11.48 10.1002 10.9288 10.6109 10.4645C11.1216 10.0002 11.728 9.63188 12.3952 9.3806C13.0625 9.12933 13.7777 9 14.5 9C15.2223 9 15.9375 9.12933 16.6048 9.3806C17.2721 9.63188 17.8784 10.0002 18.3891 10.4645C18.8998 10.9288 19.3049 11.48 19.5813 12.0866C19.8577 12.6932 20 13.3434 20 14" stroke="#8FC640"/>
<path d="M4.66406 14L7.85803 2.46624C8.09795 1.59984 8.88648 1 9.78549 1H35.5426C36.4416 1 37.2302 1.59984 37.4701 2.46624L40.6641 14" stroke="#8FC640"/>
<path d="M2 17.5H6.7802C7.41124 17.5 7.88454 18.0773 7.76078 18.6961L7.16078 21.6961C7.06729 22.1635 6.65688 22.5 6.1802 22.5H1" stroke="#8FC640"/>
<path d="M40 10H44C44.5523 10 45 10.4477 45 11V13C45 13.5523 44.5523 14 44 14H40" stroke="#8FC640"/>
<path d="M12 28L12 31C12 32.1046 11.1046 33 10 33L7 33C5.89543 33 5 32.1046 5 31L5 28" stroke="#8FC640"/>
<path d="M41 28L41 31C41 32.1046 40.1046 33 39 33L36 33C34.8954 33 34 32.1046 34 31L34 28" stroke="#8FC640"/>
<path d="M45 23L39.8198 23C39.3431 23 38.9327 22.6635 38.8392 22.1961L38.2392 19.1961C38.1155 18.5773 38.5888 18 39.2198 18L44 18" stroke="#8FC640"/>
<path d="M4.33333 14L2 14C1.44771 14 1 13.5523 1 13L1 11C1 10.4477 1.44772 10 2 10L6 10" stroke="#8FC640"/>
<path d="M1 26H45" stroke="#8FC640"/>
<path d="M24 20H34" stroke="#8FC640"/>
<path d="M12 20H22" stroke="#8FC640"/>
</svg>
