<svg width="55" height="79" viewBox="0 0 55 79" fill="none" xmlns="http://www.w3.org/2000/svg">
<g clip-path="url(#clip0)">
<path d="M-0.000976562 0.00732422H54.2991V78.5076H-0.000976562V0.00732422Z" fill="#7E7F84"/>
<path d="M41.857 63.322V66.7622H42.9603V64.4717H46.9756V66.7622H48.078V63.3279L41.857 63.322ZM42.8373 62.2091H47.0795C47.6687 62.092 48.1069 61.5719 48.2305 61.0688H41.6865C41.8088 61.5722 42.2535 62.092 42.8373 62.2091Z" fill="white"/>
<path d="M38.5155 66.7643C39.0718 66.5285 39.371 66.1206 39.4858 65.6432H34.5374L34.5407 61.0718L33.4315 61.0749V66.7643H38.5155ZM25.1829 62.1937H29.1006C29.6913 62.0221 30.1872 61.5721 30.3081 61.0733H24.0845V64.4355H29.1782V65.6154L25.1827 65.6187C24.5566 65.7933 24.0256 66.2137 23.7607 66.769L24.0845 66.763H30.2727V63.3178H25.1827V62.1937" fill="white"/>
<path d="M15.5108 62.2045H19.7516C20.3416 62.0869 20.7801 61.5672 20.903 61.0637H14.3594C14.4815 61.5672 14.9265 62.0869 15.5108 62.2045ZM15.5108 64.453H19.7516C20.3416 64.3367 20.7801 63.8166 20.903 63.3128H14.3594C14.4815 63.8169 14.9265 64.3367 15.5108 64.453ZM15.5108 66.7636H19.7516C20.3416 66.6463 20.7801 66.1264 20.903 65.6232H14.3594C14.4815 66.1268 14.9265 66.6463 15.5108 66.7636Z" fill="white"/>
<path d="M4.47852 61.0774C4.606 61.5746 5.03665 62.0827 5.62713 62.2102H7.41223L7.50329 62.2461V66.7506H8.61799V62.2461L8.71941 62.2102H10.5061C11.1033 62.0563 11.5244 61.5746 11.6497 61.0774V61.0664H4.47852V61.0774Z" fill="white"/>
<path d="M27.1846 49.823L32.7545 18.4984C38.0634 18.4984 39.7379 19.0806 39.9799 21.4568C39.9799 21.4568 43.5414 20.1289 45.3375 17.4319C38.3281 14.1839 31.2852 14.0374 31.2852 14.0374L27.1755 19.0429L27.1848 19.0423L23.075 14.0366C23.075 14.0366 16.0319 14.1833 9.02344 17.4313C10.8181 20.1282 14.3809 21.4562 14.3809 21.4562C14.6241 19.0798 16.2966 18.4976 21.57 18.4939L27.1846 49.823Z" fill="white"/>
<path d="M27.1818 12.5915C32.848 12.5481 39.3333 13.468 45.9727 16.3617C46.8601 14.7645 47.0882 14.0586 47.0882 14.0586C39.8304 11.1872 33.0337 10.2046 27.181 10.1799C21.3285 10.2046 14.5321 11.1874 7.27539 14.0586C7.27539 14.0586 7.59913 14.9281 8.39009 16.3617C15.0281 13.468 21.5149 12.5481 27.1812 12.5915H27.1818Z" fill="white"/>
</g>
<defs>
<clipPath id="clip0">
<rect width="54.3001" height="78.5137" fill="white"/>
</clipPath>
</defs>
</svg>
