<svg width="40" height="40" viewBox="0 0 40 40" fill="none" xmlns="http://www.w3.org/2000/svg">
<circle cx="20" cy="20" r="20" fill="#2A9FF4"/>
<path d="M31 13.1165C30.1905 13.4755 29.3206 13.7181 28.4076 13.8272C29.3396 13.2686 30.0552 12.384 30.3922 11.3301C29.5201 11.8473 28.5542 12.2229 27.5261 12.4254C26.7027 11.5482 25.5297 11 24.2315 11C21.7387 11 19.7178 13.0209 19.7178 15.5135C19.7178 15.8672 19.7578 16.2117 19.8347 16.542C16.0835 16.3538 12.7577 14.5569 10.5315 11.8262C10.143 12.4928 9.92043 13.2682 9.92043 14.0953C9.92043 15.6612 10.7173 17.0427 11.9284 17.8521C11.1885 17.8287 10.4926 17.6257 9.88398 17.2876C9.88365 17.3064 9.88365 17.3254 9.88365 17.3443C9.88365 19.5312 11.4395 21.3555 13.5043 21.7701C13.1255 21.8733 12.7268 21.9284 12.3151 21.9284C12.0243 21.9284 11.7415 21.9001 11.466 21.8474C12.0403 23.6406 13.7072 24.9456 15.6822 24.982C14.1375 26.1925 12.1913 26.9141 10.0767 26.9141C9.71241 26.9141 9.35311 26.8928 9 26.8511C10.9975 28.1317 13.37 28.8789 15.9189 28.8789C24.221 28.8789 28.7608 22.0013 28.7608 16.0368C28.7608 15.8411 28.7565 15.6465 28.7478 15.453C29.6296 14.8166 30.3949 14.0216 31 13.1165Z" fill="white"/>
</svg>