<svg width="65" height="64" viewBox="0 0 65 64" fill="none" xmlns="http://www.w3.org/2000/svg">
<circle cx="32.4785" cy="32" r="32" fill="#A4A6AE"/>
<path fill-rule="evenodd" clip-rule="evenodd" d="M15.4311 48.9932C17.4648 51.0262 19.8294 52.6986 22.4238 53.9389L15.4311 37.9071L9.60376 24.547C8.83627 26.8779 8.43831 29.3794 8.43831 31.9661C8.43831 38.5894 11.1103 44.6156 15.4311 48.9932ZM49.9396 55.19C57.0176 49.9313 61.6226 41.4884 61.6226 31.9661C61.6226 22.4435 57.0176 14.001 49.9396 8.71383C45.1072 5.13218 39.1382 3.00024 32.6855 3.00024C26.2329 3.00024 20.2634 5.13218 15.4311 8.71383C8.35303 14.001 3.74805 22.4435 3.74805 31.9661C3.74805 41.4884 8.35303 49.9313 15.4311 55.19C20.2634 58.7713 26.2329 60.9036 32.6855 60.9036C39.1382 60.9036 45.1072 58.7717 49.9396 55.19ZM49.9396 14.9391C50.8012 15.8015 51.5904 16.7332 52.2993 17.7248L49.9396 23.1826L41.0427 43.6207L36.4377 33.1316H28.9333L24.3283 43.6207L15.4311 23.1826L13.0717 17.7248C13.7804 16.7331 14.5695 15.8014 15.4311 14.9391C16.9072 13.4319 18.5806 12.1315 20.4056 11.0732L28.8196 30.6586H36.551L44.9651 11.0732C46.7901 12.1315 48.4634 13.4319 49.9396 14.9391ZM49.9396 37.9071L55.7669 24.547C56.5348 26.8779 56.9327 29.3794 56.9327 31.9661C56.9327 38.589 54.2607 44.6156 49.9396 48.9932C47.906 51.0262 45.5415 52.6986 42.9472 53.9389L49.9396 37.9071ZM32.6855 39.7832L39.4513 55.2185C37.2536 55.8614 34.9753 56.1869 32.6855 56.1849C30.3959 56.1868 28.1177 55.8614 25.9202 55.2185L32.6855 39.7832ZM32.6855 24.6039L39.6502 8.74226C37.4611 8.06004 35.1017 7.71893 32.6855 7.71893C30.2693 7.71893 27.9384 8.06004 25.7212 8.74226L32.6855 24.6039Z" fill="#F1F1F1"/>
</svg>
