<svg width="20" height="20" viewBox="0 0 20 20" fill="none" xmlns="http://www.w3.org/2000/svg">
<path d="M9.89221 6.82328C9.24841 6.82014 8.61818 7.00818 8.08137 7.36357C7.54457 7.71897 7.12537 8.22571 6.8769 8.81958C6.62843 9.41346 6.56188 10.0677 6.68568 10.6995C6.80948 11.3312 7.11805 11.9119 7.5723 12.3681C8.02655 12.8243 8.60601 13.1354 9.23726 13.2619C9.8685 13.3885 10.5231 13.3248 11.1181 13.0789C11.7131 12.833 12.2217 12.4161 12.5795 11.8809C12.9372 11.3457 13.128 10.7163 13.1277 10.0726C13.1288 9.64673 13.046 9.22484 12.884 8.83101C12.722 8.43719 12.484 8.07915 12.1835 7.77738C11.883 7.47561 11.526 7.23602 11.1328 7.07231C10.7397 6.9086 10.3181 6.82397 9.89221 6.82328ZM9.89221 11.8109C9.54799 11.8127 9.21101 11.7122 8.92395 11.5223C8.6369 11.3323 8.4127 11.0614 8.27976 10.7439C8.14682 10.4265 8.11113 10.0767 8.17722 9.73887C8.2433 9.40108 8.40818 9.09051 8.65096 8.84652C8.89374 8.60252 9.20349 8.43608 9.54097 8.36829C9.87845 8.30049 10.2285 8.3344 10.5466 8.46571C10.8648 8.59702 11.1369 8.81982 11.3283 9.10588C11.5197 9.39194 11.6219 9.72838 11.6219 10.0726C11.6228 10.3005 11.5788 10.5263 11.4923 10.7371C11.4059 10.948 11.2787 11.1397 11.118 11.3014C10.9573 11.463 10.7664 11.5913 10.556 11.6791C10.3457 11.7668 10.1201 11.8122 9.89221 11.8127V11.8109Z" fill="#2A9FF4"/>
<path d="M4.95614 10.1411C4.95406 9.46451 5.08532 8.79414 5.34244 8.1683C5.59957 7.54247 5.9775 6.97342 6.45465 6.4937C6.9318 6.01397 7.49882 5.63295 8.12329 5.37243C8.74777 5.11191 9.41746 4.97699 10.0941 4.97537C10.2938 4.97537 10.4853 4.89605 10.6265 4.75487C10.7677 4.61369 10.847 4.42221 10.847 4.22255C10.847 4.02289 10.7677 3.8314 10.6265 3.69022C10.4853 3.54904 10.2938 3.46973 10.0941 3.46973C9.22113 3.46996 8.35686 3.64318 7.55123 3.97938C6.74561 4.31559 6.0146 4.8081 5.40047 5.42847C4.15513 6.68256 3.45769 8.37909 3.46095 10.1464V10.1552C3.46188 10.2536 3.48217 10.3508 3.52069 10.4414C3.5592 10.532 3.61518 10.614 3.68542 10.683C3.75566 10.7519 3.83879 10.8063 3.93006 10.8431C4.02133 10.8799 4.11895 10.8984 4.21736 10.8974C4.31577 10.8965 4.41303 10.8762 4.50359 10.8377C4.59415 10.7992 4.67624 10.7432 4.74517 10.673C4.8141 10.6028 4.86852 10.5196 4.90533 10.4284C4.94213 10.3371 4.96059 10.2395 4.95967 10.1411H4.95614Z" fill="#2A9FF4"/>
<path d="M1.52694 10.7105C1.50755 10.4848 1.49873 10.2539 1.49873 10.0194C1.49595 8.90413 1.71288 7.79924 2.13714 6.76781C2.56141 5.73637 3.18469 4.7986 3.9714 4.00802C4.75812 3.21744 5.69286 2.58955 6.72225 2.16019C7.75165 1.73084 8.85554 1.50842 9.9709 1.50564C10.1706 1.50564 10.3621 1.42633 10.5033 1.28515C10.6445 1.14397 10.7238 0.952484 10.7238 0.752824C10.7238 0.553163 10.6445 0.36168 10.5033 0.220499C10.3621 0.0793177 10.1706 2.8865e-06 9.9709 2.88352e-06C8.65965 -0.000996741 7.36119 0.257916 6.15062 0.761773C4.94005 1.26563 3.84137 2.00444 2.91811 2.93547C1.0453 4.81701 -0.00421023 7.36479 1.26946e-05 10.0194C1.26946e-05 10.2909 0.0105919 10.5642 0.0317503 10.8357C0.0399702 10.9339 0.0674468 11.0294 0.112611 11.117C0.157776 11.2045 0.219743 11.2823 0.294977 11.3459C0.37021 11.4095 0.457235 11.4577 0.551083 11.4877C0.644931 11.5177 0.743765 11.5288 0.84194 11.5206C0.940116 11.5124 1.03571 11.4849 1.12327 11.4398C1.21083 11.3946 1.28863 11.3327 1.35224 11.2574C1.41585 11.1822 1.46401 11.0952 1.49399 11.0013C1.52397 10.9075 1.53516 10.8087 1.52694 10.7105Z" fill="#2A9FF4"/>
<path d="M15.035 9.84695C15.0366 10.5237 14.9049 11.1941 14.6474 11.82C14.3899 12.4459 14.0116 13.0149 13.5342 13.4946C13.0568 13.9742 12.4895 14.3552 11.8649 14.6157C11.2402 14.8762 10.5703 15.0111 9.89351 15.0127C9.69383 15.0127 9.50233 15.092 9.36114 15.2332C9.21995 15.3744 9.14063 15.5658 9.14062 15.7655C9.14063 15.9652 9.21995 16.1566 9.36114 16.2978C9.50233 16.439 9.69383 16.5183 9.89351 16.5183C10.7677 16.5165 11.6329 16.3424 12.4398 16.0061C13.2466 15.6698 13.9793 15.1778 14.5959 14.5583C15.2126 13.9387 15.7011 13.2038 16.0336 12.3954C16.3661 11.587 16.536 10.721 16.5337 9.84695C16.5337 9.64823 16.4548 9.45764 16.3142 9.31712C16.1737 9.1766 15.9831 9.09766 15.7844 9.09766C15.5856 9.09766 15.395 9.1766 15.2545 9.31712C15.114 9.45764 15.035 9.64823 15.035 9.84695Z" fill="#2A9FF4"/>
<path d="M18.4676 9.27501C18.4852 9.5095 18.494 9.74222 18.494 9.98023C18.4997 12.2309 17.6114 14.3918 16.0244 15.9879C14.4374 17.584 12.2816 18.4847 10.0307 18.4922C9.83708 18.5016 9.6545 18.5851 9.52079 18.7254C9.38708 18.8657 9.3125 19.0521 9.3125 19.2459C9.3125 19.4397 9.38708 19.6261 9.52079 19.7664C9.6545 19.9068 9.83708 19.9903 10.0307 19.9996C12.6811 19.9922 15.2201 18.9328 17.0897 17.0544C18.9594 15.176 20.0067 12.6322 20.0016 9.98199C20.0016 9.70872 19.9892 9.43721 19.9681 9.17275C19.9642 9.07209 19.9401 8.97323 19.8972 8.8821C19.8542 8.79097 19.7933 8.70943 19.7182 8.64236C19.643 8.57529 19.5551 8.52406 19.4596 8.49175C19.3642 8.45943 19.2633 8.44669 19.1628 8.45428C19.0623 8.46187 18.9644 8.48964 18.875 8.53592C18.7855 8.58221 18.7062 8.64606 18.642 8.72367C18.5778 8.80127 18.5298 8.89103 18.5011 8.98758C18.4723 9.08413 18.4633 9.18549 18.4746 9.28559L18.4676 9.27501Z" fill="#2A9FF4"/>
</svg>
